<?xml version="1.0" standalone="no"?>
<!DOCTYPE svg PUBLIC "-//W3C//DTD SVG 20010904//EN"
 "http://www.w3.org/TR/2001/REC-SVG-20010904/DTD/svg10.dtd">
<svg version="1.0" xmlns="http://www.w3.org/2000/svg"
 width="360.000000pt" height="447.000000pt" viewBox="0 0 360.000000 447.000000"
 preserveAspectRatio="xMidYMid meet">

<g transform="translate(0.000000,447.000000) scale(0.100000,-0.100000)"
fill="#000000" stroke="none">
<path d="M1367 4436 c-44 -16 -83 -49 -102 -86 -9 -18 -16 -92 -21 -228 l-7
-202 -203 0 -203 0 -3 203 c-3 190 -4 204 -26 239 -35 56 -78 78 -153 78 -72
0 -110 -20 -150 -78 -23 -34 -24 -43 -27 -239 l-3 -203 -108 0 c-95 0 -113 -3
-159 -26 -59 -29 -106 -79 -136 -143 l-21 -46 2 -1747 2 -1747 25 -49 c26 -51
74 -99 129 -129 30 -17 121 -18 1577 -21 1427 -2 1548 -1 1589 14 61 23 124
84 152 147 l24 52 -2 1747 c-3 1933 3 1778 -70 1858 -59 67 -119 90 -230 90
l-93 0 0 68 c0 37 -3 132 -7 212 l-6 145 -41 43 c-79 84 -203 77 -273 -15
l-28 -36 -3 -209 -3 -208 -207 2 -207 3 -5 207 c-5 190 -7 209 -26 235 -66 88
-183 105 -264 37 -52 -45 -55 -55 -60 -274 l-5 -205 -207 -3 -208 -2 0 195 c0
177 -2 200 -20 235 -39 76 -135 115 -213 86z m-676 -146 c9 -33 9 -697 0 -730
-5 -19 -14 -26 -39 -28 -27 -3 -34 1 -42 24 -7 17 -10 156 -8 386 3 389 2 381
58 376 16 -2 26 -11 31 -28z m767 18 c17 -17 17 -749 0 -766 -17 -17 -53 -15
-69 5 -22 25 -20 750 1 763 21 13 54 12 68 -2z m770 0 c17 -17 17 -749 0 -766
-15 -15 -51 -15 -66 0 -17 17 -17 749 0 766 7 7 21 12 33 12 12 0 26 -5 33
-12z m773 -5 c11 -13 14 -86 14 -378 0 -387 -1 -395 -49 -395 -12 0 -27 5 -34
12 -17 17 -17 749 0 766 17 17 53 15 69 -5z m-2531 -636 c0 -132 0 -134 30
-179 74 -111 226 -113 298 -5 25 38 27 48 30 179 l4 138 204 0 204 0 0 -92 c0
-142 13 -205 52 -245 82 -85 205 -79 275 14 27 35 28 41 31 180 l4 143 209 0
209 0 0 -130 c0 -146 9 -181 59 -223 86 -72 204 -54 268 42 21 31 23 45 23
172 l0 139 210 0 210 0 0 -127 c0 -103 4 -136 19 -169 47 -104 183 -136 267
-62 58 52 67 78 72 227 l5 134 86 -6 c93 -7 119 -19 158 -77 l23 -33 0 -1722
0 -1722 -23 -33 c-12 -18 -35 -43 -50 -54 l-28 -21 -1516 -3 -1516 -2 -38 25
c-21 14 -45 37 -52 52 -21 42 -28 857 -20 2298 l6 1205 32 37 c34 40 68 49
193 52 l62 1 0 -133z"/>
<path d="M1514 2870 c-15 -16 -112 -139 -216 -272 -104 -134 -195 -244 -201
-246 -7 -1 -55 40 -107 93 -78 79 -100 95 -125 95 -39 0 -55 -16 -55 -56 0
-27 19 -51 131 -168 135 -140 153 -151 195 -122 18 13 150 180 412 522 79 104
90 140 50 168 -33 23 -55 20 -84 -14z"/>
<path d="M749 2766 c-86 -35 -145 -89 -185 -172 l-36 -71 4 -179 c3 -163 5
-183 26 -221 49 -93 130 -160 226 -188 47 -14 92 -16 254 -13 194 3 198 3 257
32 110 54 190 165 202 280 7 65 -11 96 -57 96 -41 0 -58 -20 -69 -85 -13 -72
-51 -128 -111 -166 l-45 -29 -201 0 -200 0 -46 29 c-98 62 -123 129 -116 311
5 126 18 163 78 218 45 43 78 49 290 57 113 4 211 12 218 17 18 16 15 72 -6
91 -16 15 -47 17 -223 17 -190 0 -208 -2 -260 -24z"/>
<path d="M1886 2631 c-69 -5 -81 -9 -98 -32 -16 -21 -17 -29 -7 -52 10 -21 20
-27 63 -32 28 -3 336 -5 684 -3 696 3 652 -1 652 65 0 23 -6 36 -22 45 -18 9
-161 13 -608 14 -322 1 -621 -1 -664 -5z"/>
<path d="M1911 2243 c-58 -2 -111 -9 -118 -15 -7 -6 -13 -26 -13 -44 0 -67
-28 -65 707 -62 723 3 693 1 693 63 0 68 26 65 -601 63 -310 -1 -611 -4 -668
-5z"/>
<path d="M1398 1308 c-62 -79 -160 -203 -216 -275 -57 -73 -107 -133 -111
-133 -3 0 -45 39 -91 86 -47 47 -98 92 -114 101 -26 14 -31 13 -55 -5 -54 -40
-45 -59 107 -214 136 -139 140 -142 170 -132 25 7 75 66 249 289 295 380 285
364 241 405 -44 41 -60 30 -180 -122z"/>
<path d="M799 1321 c-118 -17 -221 -89 -276 -193 -27 -51 -28 -60 -31 -223 -3
-154 -2 -175 18 -227 29 -79 96 -150 178 -190 l67 -33 220 0 220 0 57 28 c31
16 74 43 95 62 81 69 141 248 98 295 -23 26 -81 27 -93 3 -5 -10 -15 -40 -21
-68 -20 -80 -40 -112 -94 -152 l-51 -38 -190 -3 c-206 -4 -245 3 -307 55 -54
46 -71 95 -77 219 -8 179 27 268 125 315 41 20 66 23 225 27 167 4 180 6 193
26 21 29 19 60 -5 81 -18 16 -41 19 -158 21 -75 1 -162 -1 -193 -5z"/>
<path d="M1789 1219 c-24 -24 -20 -65 9 -87 13 -10 157 -12 690 -10 585 3 674
5 682 18 13 20 12 57 0 81 -10 18 -29 19 -685 19 -671 0 -675 0 -696 -21z"/>
<path d="M1792 838 c-18 -18 -14 -73 6 -91 17 -16 79 -17 684 -17 631 0 666 1
681 18 20 22 22 73 5 90 -17 17 -1359 17 -1376 0z"/>
</g>
</svg>
