<?xml version="1.0" standalone="no"?>
<!DOCTYPE svg PUBLIC "-//W3C//DTD SVG 20010904//EN"
 "http://www.w3.org/TR/2001/REC-SVG-20010904/DTD/svg10.dtd">
<svg version="1.0" xmlns="http://www.w3.org/2000/svg"
 width="206.000000pt" height="170.000000pt" viewBox="0 0 206.000000 170.000000"
 preserveAspectRatio="xMidYMid meet">

<g transform="translate(0.000000,170.000000) scale(0.100000,-0.100000)"
fill="#000000" stroke="none">
<path d="M1470 1687 c0 -9 18 -35 39 -56 43 -43 88 -57 146 -48 30 5 35 2 45
-24 11 -25 10 -32 -4 -48 -24 -26 -21 -86 6 -111 12 -11 29 -21 37 -21 9 -1
22 -2 29 -3 7 0 18 -13 26 -27 11 -22 11 -29 -1 -45 -22 -30 -36 -93 -23 -108
6 -8 8 -22 4 -32 -5 -16 -4 -16 5 -4 7 9 14 11 19 5 9 -13 30 -18 63 -16 22 1
29 -5 38 -31 9 -26 9 -35 -4 -47 -15 -15 -16 -13 -10 12 5 20 3 27 -8 27 -8 0
-20 7 -27 15 -7 8 -16 12 -22 9 -5 -3 -15 -1 -22 5 -8 7 -18 10 -24 9 -5 -2
-29 17 -53 42 -50 52 -73 59 -68 23 5 -33 2 -49 -10 -59 -11 -9 -10 -18 3 -57
9 -26 16 -53 16 -60 0 -7 9 -18 20 -25 39 -24 17 -87 -30 -87 -23 0 -25 -3
-23 -40 2 -36 -1 -42 -31 -61 -33 -21 -33 -21 -60 -1 -21 15 -30 17 -39 8 -7
-7 -12 -15 -12 -19 0 -4 -14 -21 -30 -39 -29 -31 -31 -32 -74 -21 -33 8 -48 8
-62 0 -10 -7 -24 -12 -31 -12 -7 0 -25 -7 -40 -14 -16 -8 -28 -12 -29 -8 0 4
-2 16 -4 27 -3 18 -2 18 8 4 16 -22 45 -10 83 32 36 42 78 70 118 79 17 4 39
11 49 15 12 5 17 2 17 -9 0 -9 5 -16 10 -16 6 0 10 7 10 15 0 8 -5 15 -11 15
-6 0 -9 7 -5 15 6 17 -9 21 -19 5 -3 -5 -25 -10 -48 -10 -66 0 -150 -36 -198
-83 l-25 -26 -14 47 c-19 66 -87 212 -99 212 -5 0 -21 -21 -36 -47 -15 -27
-74 -93 -131 -148 -107 -104 -124 -130 -124 -195 0 -31 -3 -38 -15 -34 -21 9
-145 -31 -188 -60 -24 -17 -37 -21 -40 -13 -3 7 -4 -1 -2 -18 1 -16 8 -31 16
-33 11 -3 10 -1 -1 7 -13 9 -13 11 1 11 9 0 30 7 48 16 17 8 65 18 107 21 63
5 78 9 81 24 3 11 9 16 14 13 20 -12 6 -30 -42 -58 -28 -15 -65 -42 -81 -60
-26 -26 -29 -27 -24 -9 4 12 2 24 -5 28 -8 6 -7 10 2 16 9 6 1 9 -24 9 -23 0
-36 -4 -32 -10 4 -6 11 -8 16 -5 13 9 -2 -27 -20 -45 -11 -11 -15 -12 -19 -2
-5 17 -31 15 -38 -3 -4 -8 -10 -13 -15 -10 -13 9 -48 -17 -42 -31 4 -12 -25
-34 -45 -34 -5 0 -35 52 -66 115 -62 124 -82 150 -70 90 7 -37 6 -38 -20 -31
-19 5 -26 3 -26 -8 0 -8 -6 -17 -12 -19 -10 -4 -10 -8 1 -15 11 -8 10 -14 -4
-36 -14 -20 -16 -38 -11 -76 7 -53 2 -61 -20 -32 -16 20 -18 58 -4 67 17 11
11 61 -11 89 -13 17 -30 26 -48 26 -35 0 -62 42 -43 68 26 36 32 63 20 85 -19
36 -35 47 -67 47 -23 0 -34 7 -45 28 -11 20 -15 22 -16 9 0 -36 19 -57 54 -57
62 0 82 -53 38 -103 -13 -15 -13 -23 -2 -56 11 -35 18 -41 56 -50 40 -10 44
-14 44 -43 0 -17 -7 -39 -16 -49 -14 -15 -13 -20 3 -55 14 -30 27 -42 57 -52
22 -7 46 -18 53 -24 18 -14 16 -53 -2 -72 -35 -35 -11 -92 43 -101 66 -12 76
-17 125 -67 l48 -50 44 21 c25 12 47 21 50 21 2 0 33 13 68 29 35 16 128 55
207 86 79 31 166 67 194 80 54 24 181 77 281 118 70 28 325 135 505 211 114
49 125 55 122 77 -2 13 -6 43 -9 65 -6 50 16 100 52 116 31 14 31 22 3 76 -19
35 -28 42 -53 42 -62 1 -100 59 -65 103 26 32 25 52 -4 102 -24 40 -27 42 -57
30 -8 -3 -27 4 -42 15 -33 26 -36 69 -7 95 19 17 28 65 12 65 -4 0 -12 10 -17
23 -7 15 -20 23 -43 25 -21 2 -38 12 -48 28 -15 22 -15 28 0 67 13 35 14 48 4
75 -12 31 -14 32 -71 32 -70 0 -90 9 -139 63 -26 27 -38 35 -38 24z m161 -887
c14 0 19 -7 19 -26 0 -20 -4 -25 -21 -22 -17 2 -22 11 -24 38 -1 19 0 29 2 23
3 -7 13 -13 24 -13z m-217 -106 c5 -12 2 -15 -10 -10 -10 4 -21 0 -28 -9 -7
-10 -18 -13 -29 -9 -23 8 -21 19 6 32 32 16 54 14 61 -4z m-141 -61 c-7 -2
-19 -2 -25 0 -7 3 -2 5 12 5 14 0 19 -2 13 -5z m145 -35 c-5 -15 -23 -11 -26
6 -2 11 2 14 13 10 9 -4 14 -11 13 -16z m-1030 -150 c17 -17 15 -43 -3 -58
-18 -15 -25 -10 -28 19 -1 11 -5 21 -10 21 -5 0 -4 7 3 15 15 18 22 19 38 3z
m391 -1 c-2 -1 -13 -9 -24 -17 -19 -14 -19 -14 -6 3 7 9 18 17 24 17 6 0 8 -1
6 -3z m-61 -67 c-5 -23 -35 -23 -48 0 -6 11 -8 24 -5 29 8 14 56 -12 53 -29z
m-376 -200 c10 -23 9 -50 -3 -50 -5 0 -8 4 -5 9 3 5 -1 11 -9 15 -18 7 -20 47
-2 44 6 -2 15 -10 19 -18z"/>
<path d="M1418 1677 c-16 -6 -28 -14 -28 -19 0 -4 -4 -8 -9 -8 -5 0 -133 -61
-284 -135 -151 -74 -280 -135 -286 -135 -6 0 -11 -4 -11 -10 0 -5 -8 -10 -17
-10 -10 0 -44 -16 -76 -35 -32 -19 -61 -35 -65 -35 -4 0 -70 -32 -147 -71 -77
-38 -128 -68 -114 -65 14 3 143 63 285 132 142 69 353 172 469 229 116 56 236
114 268 129 31 15 57 32 57 37 0 11 -6 10 -42 -4z"/>
<path d="M1645 1327 c-8 -19 -2 -31 13 -26 5 2 6 13 2 24 -7 19 -8 19 -15 2z"/>
<path d="M1576 1312 c-8 -13 30 -92 44 -92 14 0 13 27 -1 36 -6 3 -17 20 -24
36 -7 18 -15 26 -19 20z"/>
<path d="M1671 1274 c0 -11 3 -14 6 -6 3 7 2 16 -1 19 -3 4 -6 -2 -5 -13z"/>
<path d="M1025 1266 c-67 -17 -107 -39 -139 -76 -22 -27 -36 -70 -21 -70 2 0
22 9 44 21 37 19 41 19 70 4 17 -8 31 -20 31 -25 0 -12 -78 -50 -104 -50 -20
0 -20 0 0 -15 38 -29 139 -11 206 37 41 29 97 -39 107 -131 5 -51 8 -56 31
-56 20 0 28 8 42 45 9 25 17 63 17 84 2 86 -91 208 -177 234 -46 14 -42 14
-107 -2z"/>
<path d="M1636 1271 c-4 -7 -5 -15 -2 -18 9 -9 19 4 14 18 -4 11 -6 11 -12 0z"/>
<path d="M196 1074 c-146 -72 -155 -79 -138 -96 7 -7 12 -35 12 -63 0 -42 -5
-56 -25 -75 -32 -30 -32 -46 0 -23 37 27 46 73 29 154 -4 23 1 28 48 50 29 13
55 26 58 29 3 3 28 16 57 29 57 26 114 61 98 60 -5 0 -68 -29 -139 -65z"/>
<path d="M695 1014 c-91 -47 -115 -115 -74 -210 26 -61 54 -92 98 -110 66 -28
97 -6 47 33 -26 21 -66 81 -66 99 0 6 22 25 49 41 37 23 51 39 56 63 9 41 0
48 -28 22 -13 -12 -29 -22 -35 -22 -22 0 -13 38 14 59 47 37 -1 57 -61 25z"/>
<path d="M600 470 c0 -5 5 -10 10 -10 6 0 10 5 10 10 0 6 -4 10 -10 10 -5 0
-10 -4 -10 -10z"/>
</g>
</svg>
